<?xml version="1.0" encoding="UTF-8" standalone="no"?>
<!-- Created with Inkscape (http://www.inkscape.org/) -->

<svg
   xmlns:dc="http://purl.org/dc/elements/1.1/"
   xmlns:cc="http://creativecommons.org/ns#"
   xmlns:rdf="http://www.w3.org/1999/02/22-rdf-syntax-ns#"
   xmlns:svg="http://www.w3.org/2000/svg"
   xmlns="http://www.w3.org/2000/svg"
   xmlns:sodipodi="http://sodipodi.sourceforge.net/DTD/sodipodi-0.dtd"
   xmlns:inkscape="http://www.inkscape.org/namespaces/inkscape"
   width="188.03938mm"
   height="188.02223mm"
   viewBox="0 0 188.03938 188.02223"
   version="1.1"
   id="svg8"
   inkscape:version="0.92.4 (5da689c313, 2019-01-14)"
   sodipodi:docname="SARS-COV-2.svg">
  <defs
     id="defs2" />
  <sodipodi:namedview
     id="base"
     pagecolor="#ffffff"
     bordercolor="#666666"
     borderopacity="1.0"
     inkscape:pageopacity="0.0"
     inkscape:pageshadow="2"
     inkscape:zoom="0.75024142"
     inkscape:cx="131.6807"
     inkscape:cy="416.50495"
     inkscape:document-units="mm"
     inkscape:current-layer="layer1"
     showgrid="false"
     inkscape:window-width="1920"
     inkscape:window-height="1137"
     inkscape:window-x="-8"
     inkscape:window-y="-8"
     inkscape:window-maximized="1"
     fit-margin-top="1"
     fit-margin-left="1"
     fit-margin-bottom="1"
     fit-margin-right="1" />
  <metadata
     id="metadata5">
    <rdf:RDF>
      <cc:Work
         rdf:about="">
        <dc:format>image/svg+xml</dc:format>
        <dc:type
           rdf:resource="http://purl.org/dc/dcmitype/StillImage" />
        <dc:title></dc:title>
      </cc:Work>
    </rdf:RDF>
  </metadata>
  <g
     inkscape:label="Layer 1"
     inkscape:groupmode="layer"
     id="layer1"
     transform="translate(-10.980309,-54.488885)">
    <g
       id="g875">
      <path
         inkscape:connector-curvature="0"
         id="path839"
         d="m 196.04224,152.25812 c -2.49716,5.05833 -4.22175,5.18399 -13.7492,1.00169 -9.15178,-4.01739 -13.52075,-4.15278 -13.68935,-0.42424 -0.14792,3.27025 0.51323,4.02996 2.24908,2.58451 2.70159,-2.24963 4.13413,3.12529 1.46562,5.49904 -0.6991,0.62189 -1.89459,0.61518 -2.32595,-0.013 -0.6378,-0.9289 -2.58785,-0.75559 -2.67856,0.23807 -0.0438,0.4806 -0.27055,1.55305 -0.50374,2.38323 -0.52191,1.85815 -0.72286,1.6913 3.56708,2.96175 3.9097,1.15784 4.77175,1.26327 9.49407,1.16123 9.8543,-0.21295 12.11396,1.05561 12.47919,7.00571 0.17051,2.77789 -0.49413,4.14512 -2.59219,5.33246 -0.60903,0.34466 -1.12604,0.83167 -1.14892,1.08226 -0.0574,0.62867 -1.10974,1.68911 -2.05949,2.07532 -2.66398,1.08328 -5.64596,-0.69386 -10.92825,-6.51284 -2.93019,-3.22788 -3.26671,-3.48916 -6.89076,-5.34997 -3.92925,-2.01752 -3.59497,-2.05432 -4.64072,0.51095 -0.48872,1.19887 -0.969,2.34311 -1.06727,2.54277 -0.29818,0.60572 1.77342,1.76333 2.62346,1.46599 1.6153,-0.56503 2.16492,0.61982 1.30201,2.80688 -0.99979,2.534 -2.70525,3.31551 -3.5933,1.64662 -0.34193,-0.64262 -2.04588,-2.10558 -2.24279,-1.92561 -0.27171,0.24835 -2.97616,4.77056 -2.99835,5.01365 -0.0785,0.86021 7.53827,4.34541 12.24149,5.60133 10.16564,2.71456 12.31111,3.93018 11.94815,6.76985 -0.51047,3.99378 -1.32698,5.74604 -2.85922,6.13591 -0.47031,0.11968 -1.99769,0.68242 -3.39418,1.25054 -4.30564,1.75163 -4.60066,1.58318 -11.18487,-6.3864 -4.27001,-5.16845 -8.594,-9.82967 -9.16706,-9.88197 -0.10053,-0.009 -1.00323,0.96958 -2.00603,2.17503 -1.89569,2.27878 -1.46194,3.8848 1.11268,4.11982 1.82607,0.16671 1.49202,1.59365 -0.84933,3.62821 -1.79593,1.56061 -3.58087,1.51748 -3.43478,-0.083 0.0433,-0.47501 -1.04499,-2.09589 -1.52026,-2.26415 -0.14155,-0.0502 -1.1449,0.68105 -2.22965,1.6248 -3.28335,2.85657 0.48869,7.88948 11.25773,15.02076 2.75855,1.82672 3.90059,3.88227 3.21336,5.78374 -0.10117,0.27999 -0.0457,0.71045 0.1233,0.95659 1.34011,1.95174 -1.59876,5.80815 -4.24234,5.56683 -0.23012,-0.0214 -0.66722,0.30693 -0.97129,0.72875 -1.18891,1.64926 -3.41579,1.99654 -5.42108,0.84539 -2.26933,-1.3027 -2.92343,-2.75253 -4.3013,-9.53398 -1.12231,-5.52358 -3.61598,-12.44462 -5.20713,-14.45207 -0.28898,-0.36459 -1.85466,0.40245 -4.8444,2.37336 -0.37701,0.24853 1.20515,3.10913 1.74746,3.1595 1.50403,0.13966 1.14452,1.69138 -0.61598,2.65869 -2.3767,1.30588 -4.17775,1.20709 -4.04729,-0.22194 0.2311,-2.53177 -1.18105,-3.52151 -3.57132,-2.50303 -1.27256,0.54225 -2.24255,1.11403 -2.21222,1.3041 0.2649,1.66027 3.68007,6.9009 5.98458,9.18342 6.93749,6.87131 8.96438,16.43949 3.43254,16.20386 -0.74493,-0.0319 -1.33357,0.1666 -2.05593,0.69273 -0.76452,0.55684 -1.26435,0.71419 -2.04298,0.64311 -0.59354,-0.0542 -1.58192,0.13736 -2.32985,0.45153 -3.94661,1.65771 -5.11792,-1.04063 -5.3439,-12.31072 -0.14521,-7.24293 -1.32398,-13.61478 -2.50641,-13.54862 -2.19102,0.12259 -2.39691,-0.41973 -0.37611,-0.99065 1.72728,-0.48801 1.73342,-0.48466 2.06382,1.12536 0.14385,0.70095 0.56537,2.73461 0.93672,4.51925 0.5364,2.57785 0.70188,4.41203 0.80504,8.92377 0.24817,10.8516 1.09569,12.94851 4.54171,11.23684 0.70335,-0.34937 1.51715,-0.51912 2.21037,-0.46108 0.90504,0.0755 1.23465,-0.0442 1.88238,-0.68534 0.68634,-0.67933 0.92625,-0.75553 1.90518,-0.60513 4.83641,0.74306 2.85875,-7.14065 -3.61377,-14.40583 -6.88949,-7.73322 -7.76797,-10.47147 -3.87111,-12.06644 3.55516,-1.45511 4.60653,-0.89769 5.15768,2.73455 0.13792,0.90887 0.85832,0.90763 2.57525,-0.004 1.15974,-0.61608 1.3926,-1.07607 0.53515,-1.05723 -0.85704,0.0188 -2.83079,-4.24471 -2.11307,-4.5645 0.26949,-0.12008 1.6452,-0.93887 3.05713,-1.81953 3.13617,-1.9561 2.72765,-2.04129 4.17142,0.86997 2.78229,5.61037 3.62217,8.06362 4.76505,13.91841 1.62286,8.31361 5.08961,11.61715 8.0535,7.67436 0.50334,-0.66957 0.9173,-0.89297 1.92664,-1.03976 2.38666,-0.34709 4.30073,-2.9143 3.05062,-4.09159 -0.22506,-0.21194 -0.2926,-0.86238 -0.19762,-1.90293 0.19671,-2.15462 -0.32826,-2.98309 -2.95674,-4.6664 -11.13647,-7.13191 -15.10274,-12.93776 -11.17298,-16.35508 1.40401,-1.22093 2.65839,-2.21022 2.7875,-2.19844 0.50643,0.0462 2.46942,2.54402 2.42049,3.07994 -0.11772,1.28957 1.28215,0.86444 2.77266,-0.84205 0.98043,-1.1225 1.06782,-1.39854 0.408,-1.28884 -3.82732,0.63629 -2.86872,-7.57046 0.99749,-8.53965 0.55496,-0.13911 5.22888,4.78749 10.04358,10.58658 6.39993,7.70846 6.60523,7.83653 9.92138,6.18911 0.84656,-0.42055 2.10751,-0.9015 2.80211,-1.06876 1.91208,-0.46043 2.30882,-0.9566 2.48783,-3.11123 0.1103,-1.32777 0.2438,-1.80947 0.49518,-1.78652 0.4395,0.0401 0.46413,-0.2889 0.10672,-1.42532 -0.56297,-1.78982 -1.96896,-2.45167 -10.16044,-4.78295 -5.65209,-1.60857 -8.39502,-2.71561 -12.34355,-4.98187 -1.10411,-0.63369 -2.05002,-1.20328 -2.10204,-1.26575 -0.0521,-0.0625 0.76383,-1.53229 1.813,-3.26627 1.04917,-1.73399 1.91892,-3.27699 1.93279,-3.42889 0.0571,-0.62557 2.61953,1.08649 3.60716,2.4101 0.74496,0.99836 2.02232,-0.28393 2.21502,-2.22355 0.0818,-0.81888 0.0189,-0.85854 -0.74551,-0.47293 -0.87139,0.43959 -3.96744,-1.52993 -3.66463,-2.33122 0.65561,-1.73489 2.49789,-6.08722 2.61948,-6.18848 0.1964,-0.16355 5.60144,2.49718 7.54731,3.71529 0.88142,0.55177 2.41935,1.92455 3.44716,3.07699 4.04478,4.53524 7.27096,7.21502 8.87025,7.36791 1.53226,0.14646 3.32456,-0.99355 3.45648,-2.19857 0.0371,-0.33969 0.5124,-0.76616 1.30875,-1.17453 1.73203,-0.8882 2.2424,-1.76788 2.20626,-3.80279 -0.10814,-6.09183 -1.74286,-6.96565 -12.71679,-6.79761 -4.17501,0.0639 -5.26693,-0.12019 -10.29787,-1.73632 -1.63258,-0.52445 -2.99831,-0.98758 -3.03497,-1.02919 -0.0367,-0.0416 0.21555,-1.1725 0.56045,-2.51311 0.3449,-1.34063 0.6643,-2.83994 0.70979,-3.33182 0.0953,-1.03315 3.00712,-0.84207 4.02577,0.26413 0.7906,0.85859 1.83,-0.37001 2.01347,-2.38 0.18057,-1.97846 -0.25259,-2.53174 -1.26763,-1.61904 -2.40217,2.15995 -4.21017,0.50646 -3.84311,-3.51467 0.40362,-4.42154 -0.40841,-4.03343 6.32252,-3.0219 3.89197,0.58489 4.11031,0.65066 8.14507,2.45329 9.47855,4.23478 11.1947,4.181 13.21768,-0.41424 0.94725,-2.15168 0.85017,-3.09898 -0.47568,-4.64155 -0.48828,-0.5681 -0.81255,-1.23073 -0.77949,-1.59287 0.0784,-0.85877 -0.49295,-2.16219 -1.13238,-2.58335 -2.09194,-1.37784 -3.69224,-1.15679 -10.11485,1.39721 -3.36334,1.33746 -5.53965,2.04428 -6.57122,2.13421 -1.81188,0.15795 -8.1613,0.32912 -8.25015,0.22242 -0.0786,-0.0944 -0.5651,-6.27558 -0.52685,-6.69453 0.0515,-0.56411 3.20502,-1.23212 3.53664,-0.74916 0.9535,1.38867 1.8255,-1.0498 1.05965,-2.96324 -0.45885,-1.14644 -0.47788,-1.15986 -1.04296,-0.73513 -0.70354,0.52878 -3.86736,1.38895 -4.07612,1.10819 -0.0828,-0.11142 -0.38809,-1.2405 -0.67832,-2.50907 -0.29022,-1.26856 -0.69548,-2.82746 -0.90056,-3.46421 -0.37288,-1.15773 -0.37288,-1.15773 2.66296,-1.8006 4.82122,-1.02095 5.96001,-1.14359 11.45883,-1.23407 10.5464,-0.17356 12.82169,-1.07636 11.15737,-4.42709 -0.32283,-0.64993 -0.51679,-1.51548 -0.46607,-2.07986 0.11986,-1.33471 -0.0483,-1.77663 -0.87847,-2.30669 -0.61083,-0.39006 -0.68263,-0.56915 -0.48933,-1.22066 1.6544,-5.57598 -8.2225,-3.18613 -14.89021,3.60292 -2.48934,2.53463 -9.43197,6.62668 -9.67884,5.70479 -0.0401,-0.14984 -0.61733,-1.51223 -1.28269,-3.02754 -1.39855,-3.18513 -0.61732,-4.71779 2.27041,-4.4542 0.88108,0.0805 0.898,-0.50497 0.0669,-2.31861 -0.65947,-1.43921 -1.32726,-2.00426 -1.15677,-0.97883 0.10102,0.60761 -0.005,0.68944 -2.11499,1.63393 -1.55648,0.69671 -1.55648,0.69671 -3.44766,-2.40122 -2.20312,-3.60891 -2.31699,-3.17632 1.28494,-4.88139 4.4934,-2.12706 7.1829,-3.00678 12.12144,-3.96482 8.99939,-1.74583 11.70918,-4.18089 8.59763,-7.725906 -0.79474,-0.905446 -1.22648,-1.693064 -1.38757,-2.531349 -0.43046,-2.240016 -2.24507,-3.659661 -3.78367,-2.960121 -0.35907,0.163264 -1.3209,0.242517 -2.13739,0.176138 -2.39594,-0.194807 -2.72561,0.08123 -6.13561,5.137292 -3.65907,5.425336 -8.94943,10.275266 -12.08671,11.080446 -0.23042,0.0591 -4.55917,-4.69569 -4.74467,-5.21167 -0.11695,-0.32529 2.24455,-2.11291 2.83394,-2.14525 1.02117,-0.056 0.92291,-0.66596 -0.34328,-2.13088 -1.36133,-1.575 -1.72973,-1.753096 -1.80987,-0.875026 -0.0996,1.090996 -2.42371,3.517486 -2.93621,3.065556 -0.23981,-0.21144 -1.56109,-1.30649 -2.93617,-2.433439 -1.37508,-1.126938 -2.49435,-2.112566 -2.48726,-2.190284 0.0443,-0.485474 4.22525,-4.359694 9.72437,-9.011013 8.71191,-7.368783 8.56146,-7.1491 7.03458,-10.271117 -0.43669,-0.892925 -0.94693,-2.270272 -1.13388,-3.060779 -0.44126,-1.865979 -1.39729,-2.566076 -3.4577,-2.532047 -1.13457,0.01874 -1.39013,-0.05159 -1.36065,-0.374461 0.0453,-0.497164 -0.55527,-0.56361 -1.52609,-0.168824 -1.79998,0.731943 -2.53559,2.217342 -4.48169,9.049851 -1.99301,6.997147 -3.23487,10.015774 -5.81032,14.123178 -0.77141,1.230249 -0.77141,1.230249 -1.82499,0.488191 -0.57948,-0.408127 -2.02063,-1.28114 -3.20255,-1.940021 -1.18192,-0.65888 -2.24195,-1.292979 -2.35564,-1.409104 -0.26947,-0.275265 1.24129,-2.380687 2.11499,-2.947491 1.26361,-0.819756 0.77537,-1.429583 -1.9707,-2.461499 -0.71012,-0.266837 -0.97964,0.08621 -0.57753,0.756513 0.41684,0.69485 -1.38347,3.821287 -2.01919,3.506544 -0.21323,-0.105525 -1.7093,-0.728491 -3.32461,-1.384267 -1.61531,-0.655775 -2.98306,-1.247721 -3.03945,-1.315427 -0.14198,-0.170513 1.80906,-4.168406 3.22455,-6.60742 0.84749,-1.460315 1.75558,-2.540136 3.28369,-3.904672 5.82671,-5.203024 7.90046,-7.889593 7.65348,-9.915152 -0.13142,-1.0778 -1.15255,-2.423578 -1.88999,-2.490894 -0.4382,-0.04 -0.82515,-0.417508 -1.30627,-1.274404 -1.30174,-2.318443 -2.93224,-2.885 -6.37691,-2.215807 -3.51096,0.68208 -4.24158,2.166397 -4.3174,8.771162 -0.0806,7.026803 -0.36263,9.346193 -1.61322,13.269753 -1.26895,3.981129 -1.09772,3.772853 -2.72612,3.316011 -0.71657,-0.201033 -2.17412,-0.534089 -3.23898,-0.740135 -2.02338,-0.391497 -2.49911,-2.259436 -1.04711,-4.11142 0.87682,-1.118343 -0.99319,-2.300361 -3.29448,-2.082438 -1.13508,0.10749 -1.21979,0.430919 -0.38665,1.476174 1.89926,2.382787 0.26341,3.979401 -3.70594,3.617066 -4.77877,-0.436221 -4.77904,-4.853856 -9.4e-4,-15.601823 3.80336,-8.555389 3.62793,-10.155582 -1.34589,-12.276048 -1.65881,-0.707191 -2.74185,-0.529018 -4.1563,0.683763 -0.58706,0.503357 -1.22211,0.804756 -1.62335,0.770459 -4.259238,-0.364095 -4.380037,4.325391 -0.34484,13.387371 1.09637,2.462151 1.28879,3.617958 1.41249,8.483941 0.11497,4.522376 0.11218,4.54088 -0.673,4.469205 -0.35716,-0.0326 -1.88455,0.06521 -3.394209,0.217359 -3.061301,0.308519 -2.868542,0.409711 -3.397389,-1.783374 -0.329873,-1.367941 -0.321498,-1.481902 0.14024,-1.907038 0.702921,-0.647271 0.649268,-0.742091 -0.591618,-1.0456 -0.770283,-0.188403 -1.466248,-0.166482 -2.264829,0.07151 -1.33768,0.398569 -1.313515,0.347574 -0.724594,1.52867 1.262013,2.531013 1.284275,3.926645 0.06598,4.136364 -0.621824,0.107037 -2.268674,0.514285 -3.659651,0.904996 -1.390977,0.390711 -2.563479,0.660411 -2.605551,0.599333 -0.160063,-0.232325 -1.428273,-6.688404 -1.641699,-8.357265 -0.122905,-0.961041 -0.233727,-3.78076 -0.246273,-6.266041 -0.053,-10.498828 -0.826588,-12.507157 -4.294311,-11.148656 -1.175583,0.460541 -1.86199,0.582598 -2.37584,0.422464 -0.598553,-0.186525 -0.892916,-0.07448 -1.714439,0.651113 -0.88438,0.781351 -1.089804,0.848495 -1.896124,0.619699 -5.24957,-1.48953 -2.534528,8.944312 3.938535,15.135682 2.163789,2.069629 6.517229,9.428347 5.849281,9.887198 -2.144251,1.472994 -6.116116,2.457086 -6.61875,1.6399 -0.712515,-1.158407 -1.264865,-2.554329 -1.217224,-3.076228 0.06161,-0.674934 -1.082689,-0.578015 -2.558403,0.216695 -1.360506,0.732667 -1.364314,0.738193 -0.646421,0.937297 1.705393,0.472998 2.64899,4.073785 1.271348,4.85149 -0.660319,0.372757 -2.086743,1.262462 -3.169834,1.977111 -2.557374,1.687419 -5.854552,-4.444943 -7.600601,-14.136253 -1.216141,-6.750092 -1.845499,-8.279577 -3.954302,-9.609856 -1.642251,-1.035969 -3.109515,-0.757889 -4.290499,0.813137 -0.421854,0.561176 -0.864281,0.859533 -1.230553,0.829833 -2.38477,-0.193393 -5.47493,3.440827 -3.677923,4.325427 0.238613,0.117477 0.264373,0.589564 0.0906,1.660451 -0.357138,2.200857 0.169893,2.973345 3.57992,5.247149 6.421953,4.282158 7.997526,5.814782 11.060643,10.759107 1.831859,2.956886 1.831859,2.956886 0.06287,4.52589 -0.972944,0.86295 -2.345679,2.13978 -3.050525,2.83741 -1.396467,1.38214 -3.275322,0.39304 -3.834229,-2.01848 -0.287321,-1.23972 -0.542969,-1.21542 -2.189892,0.20808 -1.444084,1.24819 -1.836498,2.00669 -0.96303,1.86148 0.377908,-0.0628 2.855795,1.67703 3.980053,2.79461 0.03639,0.0361 -0.935221,1.30398 -2.159123,2.81734 -1.223902,1.51337 -2.290329,2.89795 -2.369839,3.07684 -0.277696,0.62483 -4.973026,-4.0614 -10.055821,-10.03631 -7.107288,-8.354758 -7.157598,-8.385629 -10.718257,-6.577515 -0.973152,0.494161 -2.284688,0.986106 -2.914522,1.093187 -1.507568,0.256322 -2.142937,1.195657 -2.159496,3.192612 -0.0089,1.075306 -0.112868,1.472956 -0.420922,1.610216 -0.58073,0.25878 -0.338275,1.47584 0.492833,2.47391 0.899232,1.0799 3.088099,1.92386 9.39356,3.62185 10.700561,2.88157 15.634684,5.68097 14.166317,8.03735 -0.573604,0.9205 -1.434404,2.41501 -1.912893,3.32116 -0.478487,0.90613 -0.971071,1.73639 -1.094629,1.845 -0.253203,0.22258 -2.563709,-1.3896 -3.553563,-2.47952 -0.883494,-0.97281 -1.373163,-0.74698 -2.034476,0.93832 -0.642494,1.63732 -0.533037,2.22673 0.297587,1.60243 0.533942,-0.40132 0.6274,-0.37311 2.430635,0.73376 2.124796,1.30423 2.083109,1.1458 0.994053,3.77833 -0.447073,1.08069 -0.938438,2.44002 -1.091922,3.02071 -0.392713,1.48582 -0.38619,1.48642 -4.277527,-0.38946 -4.700321,-2.26575 -5.467978,-2.77834 -7.584361,-5.06438 -6.034251,-6.518 -8.392709,-8.10043 -10.841375,-7.27416 -1.112221,0.3753 -2.184845,1.62762 -1.795037,2.09575 0.06435,0.0773 -0.47297,0.47174 -1.194038,0.8766 -1.994918,1.12009 -2.509782,2.23437 -2.28382,4.94271 0.429421,5.14694 2.379431,6.02003 12.736419,5.70257 4.312421,-0.13218 6.14578,0.20055 12.250849,2.2234 1.762197,0.58389 1.762197,0.58389 1.419416,2.17908 -0.188524,0.87735 -0.483229,2.35949 -0.65489,3.29364 -0.324191,1.76417 -2.969878,2.14891 -4.836283,0.70331 -0.85352,-0.66108 -1.666188,0.0732 -1.992709,1.8006 -0.406174,2.14875 0.434323,3.21459 1.488227,1.88725 0.456955,-0.57551 4.130636,-0.48044 4.514483,0.11683 4.124566,6.41787 -4.65074,8.88728 -15.278724,4.29953 -8.989348,-3.88039 -10.636985,-4.01962 -12.446799,-1.05174 -1.744708,2.86112 -1.824529,4.1578 -0.377894,6.13876 0.572372,0.78377 0.925941,1.56486 0.889426,1.96487 -0.34672,3.7983 3.999926,3.93191 12.195078,0.37488 3.122627,-1.35535 4.119016,-1.65958 6.012613,-1.83581 2.033349,-0.18922 8.592101,-0.42886 8.704822,-0.31804 0.171174,0.16828 0.718888,6.51125 0.573863,6.64579 -0.709715,0.65842 -3.950789,1.18256 -4.519609,0.73093 -0.851389,-0.67601 -1.394112,0.38238 -1.105572,2.15603 0.285001,1.75188 0.700558,2.17645 1.526762,1.55984 0.498369,-0.37194 4.209618,-1.56756 4.720885,-1.5209 0.05236,0.005 0.288183,0.83332 0.524066,1.8412 0.235883,1.00788 0.685047,2.66131 0.998141,3.67428 0.791554,2.56096 -4.363674,3.81787 -17.210261,4.19608 -8.251124,0.24291 -10.135882,1.17058 -8.817915,4.34012 0.366865,0.88226 0.622608,1.86206 0.568317,2.17734 -0.205825,1.19522 -0.100448,1.51471 0.71253,2.16049 0.751625,0.59704 0.814612,0.76114 0.619798,1.61482 -1.158815,5.07795 8.123729,2.76957 14.362658,-3.57172 4.815248,-4.89424 10.790361,-7.75705 11.613006,-5.56404 0.269601,0.71872 0.833006,2.01124 1.252007,2.8723 0.419003,0.86106 0.751376,1.66852 0.738611,1.79436 -0.03119,0.30751 -3.038574,1.86319 -4.126144,2.13442 -1.097076,0.27358 -1.147334,0.76533 -0.248756,2.43391 0.758268,1.40804 1.180472,1.68892 1.163186,0.77385 -0.01016,-0.53799 4.093906,-2.91201 4.59703,-2.65917 0.08764,0.044 0.824461,1.14038 1.637391,2.4363 0.81293,1.29592 1.668694,2.65788 1.901711,3.02659 0.861287,1.36284 -8.261425,5.36337 -15.726985,6.89665 -5.436786,1.11661 -7.18306,1.71869 -8.322266,2.86933 -1.880683,1.89956 -1.952533,4.03778 -0.180436,5.3699 0.701733,0.52752 0.942634,0.96466 1.166425,2.11661 0.447774,2.30492 2.777613,3.94287 4.073483,2.8638 0.183641,-0.15293 1.042281,-0.22399 1.908085,-0.15794 2.238008,0.1708 2.748286,-0.23533 5.618546,-4.47139 4.578936,-6.75779 5.235142,-7.4212 10.744972,-10.86295 3.29306,-2.05704 2.380719,-2.30978 5.865122,1.62478 1.624839,1.83477 0.97067,3.50772 -1.747859,4.46986 -1.379223,0.48812 -1.357516,0.98328 0.112649,2.56946 1.43562,1.54891 1.681449,1.63889 1.771858,0.64847 0.05116,-0.56044 1.943608,-3.30654 2.957362,-4.29138 0.05895,-0.0573 0.410033,0.1644 0.780123,0.49268 0.370082,0.32826 1.708137,1.43936 2.973458,2.4691 1.265329,1.02975 2.255813,1.96674 2.20108,2.0822 -0.455239,0.9605 -6.096905,6.31715 -10.580091,10.04557 -8.156711,6.78351 -8.232618,6.90475 -6.534073,10.43714 0.543341,1.12995 1.025208,2.44856 1.070821,2.93022 0.135269,1.42854 1.088209,2.10942 3.060606,2.18686 1.197907,0.047 1.651826,0.15679 1.629726,0.3945 -0.04891,0.52714 1.406126,0.51456 2.228989,-0.0193 1.371438,-0.88972 2.274053,-3.00981 3.910063,-9.18422 1.22996,-4.64195 1.804914,-6.36423 2.979882,-8.92628 1.052559,-2.29514 3.657745,-6.94019 3.880986,-6.91981 0.06701,0.006 1.521954,0.85571 3.233259,1.88799 1.711306,1.03228 3.259628,1.89097 3.440713,1.90819 0.603061,0.0575 -1.774747,3.60295 -2.744283,4.09206 -1.229778,0.62039 0.206493,2.05393 2.244201,2.23994 0.775533,0.0708 0.784114,0.0588 0.433053,-0.60086 -1.122803,-2.11007 2.008102,-4.77175 4.396069,-3.73726 1.232912,0.5341 2.733783,1.14631 3.335267,1.36045 1.298694,0.46237 1.292618,0.30739 0.111025,2.82871 -2.841834,6.06399 -3.388383,6.87336 -6.658906,9.86111 -4.376336,3.99796 -6.587746,6.78431 -6.744137,8.49757 -0.150585,1.64968 0.77028,3.15988 2.003183,3.28519 0.365438,0.0373 0.746651,0.41065 1.059569,1.03821 0.986247,1.97796 1.892723,2.52267 4.20059,2.52419 5.843101,0.004 6.775271,-1.75962 6.621497,-12.52659 -0.06817,-4.77323 0.13046,-5.89658 2.110351,-11.93533 0.744086,-2.26945 0.862323,-2.47062 1.346727,-2.29129 0.292073,0.10807 1.781801,0.4544 3.310515,0.7695 2.803271,0.57781 3.524737,2.70752 1.721511,5.08175 -0.789608,1.03964 0.07378,1.9457 2.016354,2.11599 2.231444,0.1957 2.732047,-0.24893 1.644657,-1.46046 -0.557265,-0.62087 -0.464383,-4.17739 0.121102,-4.63713 2.340438,-1.8378 7.291887,0.87733 7.016547,3.84753 -0.51542,5.55833 -0.97429,7.34211 -3.20629,12.46012 -3.39293,7.78005 -3.552314,9.50532 -1.04209,11.27962 2.79956,1.97879 4.89484,2.10659 6.76769,0.41282 0.6442,-0.58262 1.17689,-0.83354 1.67334,-0.78823 3.74735,0.34207 3.92822,-3.96753 0.49986,-11.91012 -1.70484,-3.94966 -1.88358,-4.77482 -2.08049,-9.60478 -0.22575,-5.537 -0.3482,-5.31402 3.04067,-5.5367 1.61591,-0.10618 3.10498,-0.24023 3.30903,-0.29788 0.71281,-0.20141 1.5533,3.94566 0.91821,4.53046 -0.99663,0.91772 1.32046,1.56165 3.17198,0.88152 1.0992,-0.40377 1.08191,-0.35766 0.49824,-1.32983 -0.44968,-0.74901 -1.26497,-3.65593 -1.20613,-4.30048 0.0278,-0.30507 2.16534,-0.9813 2.89209,-0.91496 0.87525,0.0799 0.49272,0.84194 -0.51008,1.01614 -1.51985,0.26403 -1.57694,2.51444 -0.10438,4.11363 1.85167,2.01091 -3.74528,3.73019 -5.76047,1.76952 -0.51389,-0.5 -0.5152,-0.55334 -0.032,-1.3099 0.50765,-0.79503 0.20646,-3.35445 -0.39519,-3.35874 -4.99399,-0.0355 -5.00829,-0.025 -4.91654,3.61922 0.14334,5.69367 0.24891,6.23341 2.01592,10.30623 3.6593,8.43446 3.18338,13.80237 -1.18835,13.40331 -0.2855,-0.0261 -0.97494,0.28463 -1.5321,0.69044 -1.99978,1.45654 -3.22155,1.5689 -5.57217,0.51241 -5.188315,-2.33187 -5.339064,-4.27523 -1.08911,-14.03936 1.78007,-4.08965 3.85678,-13.30494 3.18117,-14.11627 -1.87467,-2.25131 -7.027654,0.82437 -5.369324,3.2048 0.739019,1.06082 0.70319,1.4374 -0.192249,2.01815 -2.486103,1.61283 -7.585823,-0.97113 -5.606385,-2.84069 1.71103,-1.61603 1.059751,-3.52767 -1.376638,-4.04071 -2.869277,-0.60418 -2.568879,-0.83865 -3.665426,2.86111 -1.455385,4.91049 -1.580956,5.68184 -1.491257,9.16056 0.300844,11.66711 -0.734884,13.76384 -6.993765,14.15802 -2.680263,0.16881 -5.724105,-1.57224 -5.576461,-3.18967 0.01273,-0.13987 -0.107074,-0.2662 -0.266322,-0.28074 -5.390738,-0.49209 -3.463707,-6.57096 4.338279,-13.68521 1.632336,-1.48845 2.837014,-2.84689 3.429737,-3.86752 0.870387,-1.49873 3.046386,-5.8966 3.286115,-6.64151 0.09912,-0.30807 -3.820434,-2.22115 -4.765673,-2.32605 -0.460495,-0.051 -2.042048,2.76303 -1.749965,3.11379 0.699258,0.83976 -0.08369,2.02711 -1.265547,1.91922 -3.006241,-0.27442 -5.019096,-2.8362 -3.11522,-3.96476 2.630308,-1.55918 2.564699,-2.80546 -0.233304,-4.43147 -2.179352,-1.26649 -2.702494,-1.47908 -2.926444,-1.18917 -1.92568,2.49278 -4.472596,8.69805 -6.113882,14.89572 -2.12536,8.02562 -4.010784,10.77724 -6.728466,9.81965 -0.36535,-0.12875 -1.408713,-0.39921 -2.318602,-0.60106 -2.148102,-0.47654 -2.829391,-1.11734 -3.486985,-3.27969 -0.2927,-0.96246 -0.8504,-2.36798 -1.239332,-3.12338 -1.693091,-3.28835 -1.245352,-4.01595 6.366348,-10.34558 4.703826,-3.91155 10.535951,-9.37667 10.585489,-9.91935 0.01425,-0.1563 -4.467965,-3.78565 -4.551154,-3.68517 -0.03736,0.0452 -0.560855,0.65093 -1.163238,1.34615 -0.707417,0.81644 -1.122048,1.55769 -1.170944,2.09334 -0.151371,1.65828 -1.640942,1.26151 -3.536098,-0.94189 -1.668094,-1.93942 -1.646984,-2.80485 0.08403,-3.44383 2.690763,-0.99326 2.977455,-1.87709 1.268407,-3.91028 -1.888495,-2.24667 -1.724498,-2.22949 -4.536901,-0.47537 -4.772913,2.97691 -6.221882,4.49371 -10.339307,10.8233 -2.591979,3.98456 -3.409649,4.6039 -5.791247,4.3865 -0.709522,-0.0648 -1.683717,0.0357 -2.164873,0.22328 -2.042805,0.79635 -4.51792,-0.97316 -4.996057,-3.57178 -0.154254,-0.83836 -0.465073,-1.39547 -1.047843,-1.87818 -1.639787,-1.35825 -1.857774,-3.35484 -0.587463,-5.38077 1.428872,-2.27882 2.504323,-2.75701 9.488399,-4.21898 5.052511,-1.05763 13.205633,-4.0938 15.152069,-5.64252 0.157537,-0.12535 -2.788135,-4.64191 -3.042567,-4.66513 -0.759205,-0.0693 -3.235911,1.45568 -3.36543,2.0722 -0.26811,1.2762 -1.675931,0.93088 -2.549754,-0.62543 -1.365179,-2.43143 -1.29854,-4.23072 0.151782,-4.09834 2.616129,0.23881 3.804008,-1.42844 2.7393,-3.84476 -1.171555,-2.65878 -0.74806,-2.59767 -4.424686,-0.63852 -2.431146,1.29548 -4.324039,2.75132 -7.640548,5.87643 -6.55835,6.17986 -16.460626,7.42972 -14.864192,1.87616 0.144901,-0.50405 0.07173,-0.7802 -0.265589,-1.00236 -0.629535,-0.41464 -1.137354,-1.73931 -1.046851,-2.73076 0.04079,-0.44677 -0.168877,-1.42432 -0.465909,-2.17235 -1.608237,-4.05009 1.106151,-5.23289 12.589355,-5.48581 4.702577,-0.10358 6.629633,-0.34536 11.238745,-1.41008 2.079248,-0.48031 2.503835,-0.66406 2.389064,-1.03398 -0.07677,-0.24742 -0.404729,-1.43004 -0.728797,-2.62803 -0.324073,-1.19799 -0.627576,-2.22422 -0.674455,-2.28052 -0.194553,-0.23364 -3.030671,0.60524 -3.771525,1.11556 -0.956965,0.65919 -1.348539,0.65769 -1.831962,-0.007 -1.86927,-2.57014 -0.776485,-7.29319 1.305045,-5.64046 0.589516,0.46808 2.567805,0.26068 3.323292,-0.34839 0.171042,-0.1379 -0.240924,-4.76654 -0.446178,-5.01304 -0.442681,-0.53161 -9.971089,0.34932 -11.35794,1.05008 -9.078287,4.58717 -15.92798,4.66676 -15.518443,0.18032 0.03482,-0.38148 -0.32976,-1.18125 -0.88523,-1.94188 -1.432595,-1.96173 -1.509304,-2.96871 -0.416397,-5.46611 2.250953,-5.14367 4.179806,-5.33141 13.522387,-1.31625 4.910924,2.11058 7.08419,2.65366 12.931748,3.23158 1.654582,0.16353 1.654582,0.16353 1.838357,-2.6758 0.204524,-3.15994 -1.18852,-4.26504 -3.31319,-2.62837 -1.589095,1.22412 -2.878281,-0.1266 -2.637573,-2.76357 0.212879,-2.33203 2.196973,-4.23131 3.24552,-3.10674 0.905786,0.97146 3.349588,1.22358 3.599139,0.37132 0.968461,-3.30748 0.928712,-4.21036 -0.203788,-4.62897 -4.75577,-1.75793 -8.124168,-2.30193 -13.211749,-2.13367 -9.843656,0.32552 -12.231323,-1.15829 -12.328666,-7.66179 -0.03222,-2.15275 0.701399,-3.52176 2.401617,-4.48164 0.604325,-0.34118 1.117838,-0.77948 1.141139,-0.97399 0.0851,-0.71039 1.077697,-1.76601 2.08447,-2.21682 2.794166,-1.25117 5.830043,0.55698 11.831637,7.04662 2.317472,2.50595 2.846438,2.88052 6.909816,4.89289 3.706591,1.83568 3.44001,1.87345 4.383599,-0.62113 0.44078,-1.1653 0.875063,-2.31322 0.965075,-2.55093 0.277309,-0.73234 -2.10679,-2.06674 -3.168017,-1.77315 -1.619381,0.44799 -1.998747,-0.97892 -0.909655,-3.42146 0.850088,-1.90652 2.498589,-2.46305 3.229128,-1.09016 0.42422,0.79724 2.652774,2.4744 2.811767,2.11608 0.05933,-0.13371 0.736011,-1.35389 1.503742,-2.71152 1.609123,-2.84551 1.822752,-2.39276 -2.096163,-4.4425 -3.395254,-1.77586 -5.101097,-2.39156 -11.059982,-3.99201 -7.305912,-1.96222 -9.305909,-2.91968 -10.08115,-4.82612 -0.361731,-0.88956 -0.259667,-2.52323 0.171055,-2.738 0.168519,-0.0841 0.27172,-0.47756 0.229339,-0.874504 -0.199601,-1.86949 1.327761,-3.988535 2.988176,-4.145766 0.46223,-0.04376 1.76493,-0.524139 2.894883,-1.06747 3.963987,-1.906085 4.205636,-1.760625 11.703046,7.04425 4.338632,5.09523 8.687423,9.62538 8.935712,9.30834 0.04083,-0.0521 0.846901,-1.06921 1.791276,-2.26017 1.901273,-2.39772 1.4337,-4.05625 -1.211618,-4.29772 -1.730171,-0.15797 -1.722658,-1.19374 0.02158,-2.9748 2.109371,-2.153881 3.943685,-2.422378 4.137651,-0.60565 0.07818,0.73225 1.295599,2.26827 1.805149,2.27754 2.731157,0.0497 4.6927,-4.64748 3.029421,-7.25446 -2.856823,-4.477729 -4.026185,-5.549468 -11.62962,-10.658704 -2.192749,-1.473444 -2.92774,-2.753759 -2.81223,-4.89875 0.04533,-0.842615 -0.03699,-1.814375 -0.183036,-2.159459 -0.811008,-1.916259 1.016162,-4.327374 3.670035,-4.842937 1.092853,-0.212303 1.592627,-0.459234 1.853017,-0.915543 0.866901,-1.519153 3.547183,-1.875035 5.385908,-0.715124 2.254576,1.422232 2.988059,3.154241 4.221399,9.96822 0.8848,4.888323 4.438047,14.510713 5.260753,14.246376 0.602812,-0.193673 4.50153,-2.631774 4.531362,-2.833718 0.08566,-0.579884 -1.12926,-2.650419 -1.579269,-2.691497 -1.581823,-0.144391 -1.131269,-1.863414 0.743951,-2.838454 2.393092,-1.244307 4.089366,-0.997576 3.901516,0.567498 -0.286014,2.383026 0.895136,3.005547 3.563752,1.87826 2.223154,-0.939112 2.223154,-0.939112 1.71883,-2.051855 -1.532171,-3.380579 -3.076696,-5.617316 -5.920528,-8.573936 -6.43442,-6.689631 -8.088452,-16.188058 -2.733824,-15.699271 0.661041,0.06034 1.216606,-0.121327 1.905523,-0.623109 0.750509,-0.546628 1.225958,-0.685452 2.083228,-0.608242 0.71767,0.0647 1.504736,-0.09565 2.22398,-0.452904 3.684871,-1.830304 5.189999,1.000602 5.340813,10.045189 0.116257,6.972157 0.842562,13.755508 1.655688,15.463347 0.06454,0.135648 5.044216,-1.035483 5.498541,-1.293159 0.207147,-0.117486 -0.370674,-2.012329 -0.912251,-2.991544 -0.744831,-1.346705 -0.582588,-1.772108 0.898939,-2.357032 2.802091,-1.106306 6.071365,0.208163 4.727455,1.90076 -0.700977,0.882834 -0.295102,2.803794 0.561089,2.655452 0.306938,-0.05321 1.504528,-0.160044 2.66132,-0.237476 2.10328,-0.140774 2.10328,-0.140774 2.12549,-2.346578 0.0369,-3.666856 -0.26952,-6.736774 -0.80603,-8.074905 -0.27948,-0.696972 -1.01782,-2.533575 -1.64077,-4.081323 -3.022923,-7.510577 -2.286037,-12.236337 1.85009,-11.864853 0.40316,0.03627 1.00455,-0.225605 1.49209,-0.649581 1.81712,-1.580237 3.41509,-1.672536 6.10585,-0.352676 4.60393,2.25829 4.70659,4.382087 0.64824,13.408495 -4.26284,9.481202 -4.41549,13.720528 -0.49964,13.875983 3.1933,0.12677 3.82752,-0.541269 2.42507,-2.554405 -0.73903,-1.060814 -0.7032,-1.437396 0.19225,-2.018149 2.65126,-1.719978 7.53283,1.081119 5.42044,3.110315 -0.83295,0.800163 -0.9271,2.257549 -0.16079,2.488807 0.98668,0.297767 4.46376,1.069556 4.53842,1.007377 0.9242,-0.769573 2.43139,-8.377743 2.4007,-12.118451 -0.0804,-9.795994 0.71286,-12.182658 4.38263,-13.186423 3.66977,-1.003765 6.52726,-0.287319 7.84734,1.96756 0.33534,0.572806 1.06325,1.321979 1.61757,1.664829 3.92119,2.425278 2.35231,6.192818 -5.52655,13.271618 -2.6079,2.34307 -3.00202,2.881873 -5.08719,6.954794 -1.62919,3.182295 -1.55676,2.972651 -1.04317,3.019533 0.21738,0.01988 1.40988,0.467662 2.65001,0.99516 2.18625,0.929922 4.49133,0.0085 3.36436,-1.344921 -0.69029,-0.828973 0.10275,-2.014372 1.27546,-1.907311 2.00198,0.182747 4.04241,1.811506 3.92199,3.130701 -0.002,0.01991 -0.58843,0.552396 -1.30359,1.183226 -1.2394,1.09327 -1.68669,1.881834 -1.09787,1.935582 0.14967,0.01362 1.29551,0.656276 2.54633,1.428018 1.25081,0.77174 2.30813,1.406264 2.34959,1.410048 0.61729,0.05635 4.10843,-7.683867 5.17928,-11.482971 2.51725,-8.930516 3.51862,-11.217435 5.34149,-12.19879 0.97666,-0.525783 2.57748,-0.567944 2.8236,-0.07436 0.0763,0.153091 0.81353,0.340394 1.63821,0.416215 2.12742,0.195198 2.95329,0.878498 3.49309,2.888199 0.23439,0.872671 0.77495,2.295572 1.20125,3.162002 1.77728,3.6123 1.62444,3.864932 -6.44919,10.65952 -8.18325,6.886835 -10.07358,8.754839 -9.42843,9.317023 4.06933,3.546054 3.83584,3.418974 4.70558,2.561344 0.44159,-0.43545 0.83101,-1.099617 0.86535,-1.475922 0.18474,-2.024266 1.52065,-1.871806 3.52439,0.40225 1.88494,2.139192 1.80061,3.236062 -0.2884,3.751192 -1.78746,0.44078 -1.76299,0.99995 0.14318,3.27358 2.65194,3.16313 7.78886,-0.32783 13.53536,-9.198419 3.13084,-4.832911 4.01005,-5.274463 9.77764,-4.910332 1.90182,0.120077 3.74355,2.151586 3.57953,3.948396 -0.0178,0.198529 0.50522,1.014156 1.16297,1.812545 1.50661,1.82875 1.55997,3.33879 0.18639,5.27416 -1.47653,2.08039 -2.88332,2.66715 -9.39453,3.91839 -4.60261,0.88446 -6.82513,1.58874 -11.13898,3.52979 -3.3867,1.52388 -3.28071,1.28476 -1.71312,3.86484 0.73088,1.20295 1.3631,2.24494 1.40493,2.31555 0.23217,0.39196 2.52923,-0.98572 2.65689,-1.59351 0.27693,-1.31829 1.66178,-0.92779 2.51259,0.70852 1.28846,2.47798 1.20647,4.34202 -0.17866,4.06282 -0.72436,-0.14604 -2.61305,0.60573 -2.65419,1.05641 -0.0979,1.07279 1.80271,4.62275 2.3523,4.39355 2.98841,-1.24626 5.82216,-3.23927 9.10851,-6.40612 6.38743,-6.15515 15.62036,-7.63077 15.40014,-2.46126 -0.0339,0.78633 0.13901,1.32323 0.61834,1.92461 0.48851,0.61288 0.65142,1.13342 0.61439,1.96312 -0.0284,0.6348 0.20797,1.73417 0.53981,2.51135 1.65784,3.8826 -1.39927,5.17516 -12.41759,5.25021 -4.27447,0.0291 -6.63826,0.28011 -10.81269,1.14816 -1.45265,0.30207 -2.22054,0.58553 -2.15711,0.79626 0.0542,0.17997 0.33287,1.30507 0.61933,2.50022 0.70232,2.93023 1.43806,3.24881 3.77777,1.63573 1.02253,-0.70498 1.64826,-0.34873 2.2075,1.25679 0.97658,2.80372 -0.29871,5.66229 -1.998,4.4786 -0.79243,-0.55198 -2.3813,-0.3476 -2.44113,0.31402 -0.0536,0.59239 0.31573,4.89337 0.43216,5.0332 0.1248,0.14987 6.54539,-0.054 8.10884,-0.25756 0.66445,-0.0865 2.56599,-0.7594 4.22563,-1.49536 8.67886,-3.8486 14.07396,-3.43915 13.67189,1.03759 -0.037,0.41115 0.23015,1.0072 0.6827,1.52357 1.48778,1.69765 1.65368,3.47847 0.5351,5.74432 z"
         style="fill:#990000;fill-opacity:1;stroke:#990000;stroke-width:2.5;stroke-miterlimit:4;stroke-dasharray:none;stroke-opacity:1" />
      <path
         inkscape:connector-curvature="0"
         id="path826"
         d="m 137.37104,117.88369 c 0.0242,1.86394 -2.22346,5.17944 -7.01105,10.34186 -4.63589,4.99883 -4.95874,4.88738 4.72212,1.63029 7.55393,-2.54149 9.36203,-2.96832 9.98849,-2.35793 1.67193,1.62902 -4.7925,6.99908 -12.74468,10.58709 -3.42754,1.54652 -2.66531,1.75784 4.4995,1.24743 5.83848,-0.41593 10.8192,-0.52794 11.71842,-0.26356 4.42983,1.30241 -5.09684,6.18463 -14.99519,7.68469 -3.05035,0.46228 -2.53919,0.68717 6.13251,2.69805 8.50976,1.97332 10.58393,2.93663 9.42768,4.37849 -1.33113,1.65993 -9.50846,2.73722 -9.19283,1.21107 0.0617,-0.29827 0.25847,-0.37935 0.71925,-0.29631 2.60258,0.46898 8.48608,0.0476 8.47358,-0.91476 -0.008,-0.59808 -3.91554,-2.2451 -12.43452,-4.23405 -8.18463,-1.91089 -8.85209,-2.75762 -2.93396,-3.72198 6.14056,-1.0006 11.44232,-2.87617 14.19406,-5.02135 1.5875,-1.23755 0.0399,-1.37416 -8.86627,-0.78262 -11.51564,0.76484 -13.11147,0.0765 -6.76855,-2.91946 5.02635,-2.37412 7.29555,-3.82367 10.07651,-6.4368 3.72076,-3.49622 3.16852,-3.50617 -6.80358,-0.12271 -11.44651,3.88373 -12.11004,3.66314 -6.55084,-2.17789 4.22033,-4.43436 6.32893,-7.22812 7.38143,-9.78014 0.7925,-1.92154 -1.79464,-0.43806 -9.37856,5.37773 -6.89389,5.28662 -7.13518,5.10881 -3.88992,-2.86668 4.63819,-11.39874 4.64541,-14.28788 0.0214,-8.55964 -1.7478,2.16518 -2.80684,3.66019 -6.91175,9.75709 -2.53442,3.7643 -3.01222,2.90498 -2.22963,-4.00984 1.82491,-16.12445 0.20351,-16.63193 -4.9222,-1.54056 -3.02188,8.89718 -3.32704,9.05915 -4.34319,2.30508 -0.92547,-6.15133 -2.80422,-13.13114 -3.7941,-14.09562 -0.71837,-0.69993 -1.096408,2.23968 -1.451103,11.28377 -0.344053,8.77255 -0.836815,8.95418 -4.408224,1.62495 -7.310621,-15.00285 -9.405363,-12.65804 -3.776494,4.22732 1.538265,4.61448 0.656238,4.43838 -5.296947,-1.05752 -6.164932,-5.69138 -8.803517,-7.61942 -8.787958,-6.42146 0.01731,1.33302 3.715893,7.79182 7.129935,12.45093 1.71627,2.34218 2.009957,3.1214 1.29985,3.44876 -0.445981,0.20561 -1.174337,-0.10234 -7.039436,-2.97617 -5.107454,-2.50261 -9.538221,-4.26709 -9.86719,-3.92948 -0.603208,0.61907 4.635525,5.6301 9.776742,9.35179 6.569069,4.75528 5.56499,5.30169 -5.760689,3.13493 -6.989617,-1.33722 -10.206091,-1.60602 -9.851616,-0.82332 0.634679,1.40142 7.805617,5.3845 14.215378,7.8959 4.944386,1.93725 4.05994,2.61193 -4.184856,3.19228 -7.085165,0.49873 -11.603537,1.22239 -11.595292,1.85712 0.01101,0.84769 7.045215,2.32229 14.340781,3.00628 6.314066,0.59198 6.36127,1.07769 0.341042,3.50889 -15.798439,6.37999 -15.859723,8.50522 -0.146005,5.06317 9.480667,-2.07672 9.639716,-1.46538 1.404508,5.39847 -6.372803,5.31159 -8.760792,7.65856 -7.971061,7.83418 0.995182,0.22133 7.019608,-2.58859 12.287935,-5.73135 6.410971,-3.82438 6.575605,-3.08447 1.311266,5.89282 -7.14819,12.18984 -6.606308,12.81969 2.715426,3.15629 8.496222,-8.80764 8.824906,-8.5855 5.625586,3.80202 -3.190259,12.35242 -1.003329,11.35371 5.895382,-2.69228 3.51802,-7.1628 3.78336,-6.95935 4.35559,3.33952 0.29949,5.39018 0.52737,12.29951 1.22183,12.29049 0.55363,-0.007 2.24621,-5.22437 3.32237,-11.84316 1.63902,-10.08043 2.59247,-9.85973 7.04543,1.63073 2.63947,6.81095 3.10759,7.43165 3.14816,4.17426 0.0282,-2.26242 -0.28651,-5.9072 -0.86265,-9.99143 -1.05275,-7.46275 0.61685,-7.28909 6.44486,0.67035 8.26029,11.28126 9.7568,9.58635 3.02744,-3.42881 -4.78911,-9.2625 -4.20771,-9.81088 3.61142,-3.40631 9.14785,7.49292 11.82814,8.67635 9.39997,4.15037 -1.4723,-2.7443 -3.77291,-5.63074 -6.88017,-8.63213 -4.78144,-4.61861 -5.54631,-5.96369 -3.37248,-5.93118 1.35725,0.0203 8.31836,2.7482 9.19667,3.60397 0.89792,0.87488 -0.29654,0.73586 -2.36484,-0.27524 -7.34694,-3.59156 -7.97818,-3.22801 -3.08324,1.77566 6.96878,7.12359 9.86097,12.28287 7.23389,12.90425 -1.21237,0.28677 -3.92917,-1.48745 -10.77724,-7.03809 -6.18907,-5.0165 -6.14559,-5.0719 -2.10818,2.68645 7.42878,14.27527 5.05111,17.08035 -4.02715,4.75108 -6.04014,-8.20314 -6.23818,-8.22158 -5.26259,-0.48974 1.7382,13.7757 -0.047,15.66136 -4.23836,4.47675 -1.96304,-5.2384 -3.44309,-8.28096 -3.83341,-7.88037 -0.33124,0.33995 -0.94926,2.88824 -1.2701,5.23701 -2.36097,17.28395 -5.70247,16.1901 -6.59795,-2.15985 -0.24814,-5.08496 -0.23659,-5.08482 -2.69253,-0.0315 -3.50739,7.21683 -6.311545,11.5043 -7.730072,11.81903 -1.904943,0.42268 -1.78607,-1.3247 0.78581,-11.55069 2.201684,-8.75408 2.47261,-8.69923 -5.032832,-1.01885 -6.556992,6.70983 -7.461418,7.41209 -8.38588,6.51136 -0.826369,-0.80517 0.392406,-3.60027 4.929074,-11.30428 4.330873,-7.35452 4.340208,-7.31394 -0.949152,-4.12845 -16.317687,9.82719 -17.498288,6.53483 -2.128608,-5.93608 4.141469,-3.36036 4.117164,-3.38142 -2.284916,-1.97905 -18.268977,4.00182 -19.326785,0.89659 -2.095311,-6.15083 4.668314,-1.90929 4.661324,-1.90399 2.69438,-2.03995 -8.20749,-0.56729 -16.930185,-2.4813 -17.225596,-3.77979 -0.34179,-1.50236 3.335058,-2.35551 12.897371,-2.99262 6.446616,-0.42952 6.513776,-0.46451 3.230562,-1.68321 -6.532629,-2.42485 -13.835839,-6.73221 -14.392669,-8.48867 -0.53536,-1.68874 1.951145,-1.7031 10.778435,-0.0623 10.172585,1.89088 9.927549,1.9776 4.954708,-1.75359 -13.810441,-10.36215 -13.258649,-13.77273 1.087045,-6.71891 6.23927,3.06787 6.497614,3.16079 5.690002,2.0466 -11.896007,-16.41189 -10.858614,-20.72326 2.001027,-8.31625 4.911568,4.73868 4.790408,4.7412 3.308097,-0.0695 -5.321618,-17.27147 -1.912767,-19.08303 5.853556,-3.11076 2.862801,5.88765 2.584483,6.03627 2.875801,-1.53561 0.650558,-16.90915 3.965358,-15.74442 6.784718,2.38396 0.79327,5.10063 0.51689,5.25882 2.82842,-1.61893 5.72205,-17.025556 8.65307,-16.15971 6.59102,1.94703 -0.60734,5.33292 -0.60074,5.338 1.93168,1.48448 10.80301,-16.43864 13.91917,-15.50644 6.87114,2.05551 -0.93258,2.32377 -1.69528,4.28832 -1.69488,4.36568 0.002,0.33682 0.5471,-0.0362 4.4476,-3.04223 6.51758,-5.02294 9.24301,-6.72103 10.2983,-6.41644 0.62569,0.18061 0.64454,0.20614 0.65335,0.88496 z"
         style="fill:#339966;fill-opacity:1;stroke:#339966;stroke-width:2.45462227;stroke-miterlimit:4;stroke-dasharray:none;stroke-opacity:1" />
      <ellipse
         ry="52.485298"
         rx="53.014294"
         cy="148.5"
         cx="105"
         id="path870"
         style="fill:none;fill-opacity:1;stroke:#006699;stroke-width:6.05129194;stroke-miterlimit:4;stroke-dasharray:none;stroke-opacity:1" />
    </g>
  </g>
</svg>
